<svg xmlns="http://www.w3.org/2000/svg" viewBox="0 0 64 64" fill="none">
  <rect width="64" height="64" rx="18" fill="#0F1E2E"/>
  <rect x="8" y="8" width="48" height="48" rx="14" fill="#13263A"/>
  <path d="M19 21h26v4H19v-4zm5 7h4v16h-4V28zm12 0h4v16h-4V28zm-13 18h18v4H23v-4z" fill="#D9B36A"/>
  <path d="M47 22l-8 8h16l-8-8zm-30 0l-8 8h16l-8-8z" fill="#E8C986"/>
  <path d="M17 31c-3.1 0-5 1.8-5 4.5 0 3.5 3.2 5.8 5 5.8s5-2.3 5-5.8c0-2.7-1.9-4.5-5-4.5zm30 0c-3.1 0-5 1.8-5 4.5 0 3.5 3.2 5.8 5 5.8s5-2.3 5-5.8c0-2.7-1.9-4.5-5-4.5z" fill="#D9B36A"/>
</svg>
